<svg xmlns="http://www.w3.org/2000/svg" data-name="Layer 356" viewBox="0 0 49.1 47.65" id="customer"><path fill="#ffb703" d="M252.9,1539.07a12.49,12.49,0,0,1-12.49,12.49h-4.9a12.44,12.44,0,0,1-8.83-3.65h0a12.49,12.49,0,0,1,8.84-21.33h4.9a12.48,12.48,0,0,1,12.49,12.49Z" transform="translate(-223.01 -1503.92)"></path><circle cx="14.94" cy="7.99" r="7.99" fill="#fb8500"></circle><path fill="#4361ee" d="M252.35 1524.68a1.5 1.5 0 01-1.5-1.5v-6.55a7.36 7.36 0 017.36-7.35h4.6a1.5 1.5 0 010 3h-4.6a4.36 4.36 0 00-4.36 4.35v6.55A1.5 1.5 0 01252.35 1524.68zM260.16 1530.59a1.5 1.5 0 010-3l4.6 0a4.37 4.37 0 004.38-4.36v-6.55a1.5 1.5 0 013 0v6.55a7.37 7.37 0 01-7.36 7.36l-4.59 0z" transform="translate(-223.01 -1503.92)"></path><path fill="#4361ee" d="M260.16 1515.4a1.48 1.48 0 01-1-.36 1.49 1.49 0 01-.18-2.11l1.85-2.17L259 1508.5a1.5 1.5 0 012.32-1.91l2.65 3.23a1.51 1.51 0 010 1.93l-2.65 3.12A1.5 1.5 0 01260.16 1515.4zM262.81 1533.72a1.48 1.48 0 01-1.14-.53l-2.66-3.13a1.5 1.5 0 010-1.92l2.65-3.23a1.5 1.5 0 112.32 1.91l-1.86 2.26 1.84 2.16a1.5 1.5 0 01-.17 2.12A1.48 1.48 0 01262.81 1533.72z" transform="translate(-223.01 -1503.92)"></path></svg>