<svg xmlns="http://www.w3.org/2000/svg" width="48" height="48" id="glass"><g transform="translate(0 -1004.362)"><circle cx="24" cy="1028.362" r="24" fill="#1d67b1"></circle><g transform="rotate(10.743 883.81 3842.947)"><path fill="#ee7581" d="m-490.799 1241.235-1.507 2.612-2.424 4.199-1.305 2.26a1.702 1.702 0 0 0 .624 2.33 1.7 1.7 0 0 0 2.329-.625l5.235-9.07"></path><path fill="#406b95" d="m-489.835 1238.092-1.845 3.197 4.227 2.441 1.843-3.193"></path><path fill="#105286" d="m-489.835 1238.092-.922 1.598 4.226 2.443.921-1.596"></path><ellipse cx="-197.009" cy="1307.982" fill="#406b95" rx="9.499" ry="9.5" transform="matrix(-.86596 -.50012 -.49988 .8661 0 0)"></ellipse><ellipse cx="-197.009" cy="1307.982" fill="#d2ebf6" rx="7.499" ry="7.5" transform="matrix(-.86596 -.50012 -.49988 .8661 0 0)"></ellipse></g></g></svg>